# AST/ASF file generated using VICON BodyLanguage
# -----------------------------------------------
:version 1.10
:name VICON
:units
  mass 1.0
  length 0.45
  angle deg
:documentation
   .ast/.asf automatically generated from VICON data using
   VICON BodyBuilder and BodyLanguage model FoxedUp or BRILLIANT.MOD
:root
   order TX TY TZ RX RY RZ
   axis XYZ
   position 0 0 0  
   orientation 0 0 0 
:bonedata
  begin
     id 1 
     name lhipjoint
     direction 0.623529 -0.717805 0.309788 
     length 2.23224 
     axis 0 0 0  XYZ
  end
  begin
     id 2 
     name lfemur
     direction 0.34202 -0.939693 0  
     length 7.11402  
     axis 0 0 20  XYZ
    dof rx ry rz
    limits (-160.0 20.0)
           (-70.0 70.0)
           (-60.0 70.0)
  end
  begin
     id 3 
     name ltibia
     direction 0.34202 -0.939693 0   
     length 6.78496   
     axis 0 0 20   XYZ
    dof rx
    limits (-10.0 170.0)
  end
  begin
     id 4 
     name lfoot
     direction 0.125078 -0.343648 0.930732   
     length 1.84054   
     axis -90 7.62852e-016 20   XYZ
    dof rx rz
    limits (-45.0 90.0)
           (-70.0 20.0)
  end
  begin
     id 5 
     name ltoes
     direction 1.53565e-011 -4.21893e-011 1   
     length 0.916474   
     axis -90 7.62852e-016 20   XYZ
    dof rx
    limits (-90.0 20.0)
  end
  begin
     id 6 
     name rhipjoint
     direction -0.564688 -0.757748 0.327026   
     length 2.11457  
     axis 0 0 0  XYZ 
  end
  begin
     id 7 
     name rfemur
     direction -0.34202 -0.939693 0   
     length 7.14609   
     axis 0 0 -20   XYZ
    dof rx ry rz
    limits (-160.0 20.0)
           (-70.0 70.0)
           (-70.0 60.0)
  end
  begin
     id 8 
     name rtibia
     direction -0.34202 -0.939693 0   
     length 6.78101   
     axis 0 0 -20   XYZ
    dof rx
    limits (-10.0 170.0)
 end
 begin
     id 9 
     name rfoot
     direction -0.0992671 -0.272734 0.956955   
     length 1.96168  
     axis -90 -7.62852e-016 -20   XYZ
    dof rx rz
    limits (-45.0 90.0)
           (-20.0 70.0)
  end
  begin
     id 10 
     name rtoes
     direction -1.5356e-011 -4.21891e-011 1   
     length 0.982933   
     axis -90 -7.62852e-016 -20   XYZ
    dof rx
    limits (-90.0 20.0)
  end
  begin
     id 11 
     name lowerback
     direction -0.00596953 0.998668 0.0512524   
     length 1.87557   
     axis 0 0 0   XYZ
    dof rx ry rz
    limits (-20.0 45.0)
           (-30.0 30.0)
           (-30.0 30.0)
  end
  begin
     id 12 
     name upperback
     direction 0.00584879 0.999652 0.0257308   
     length 1.87883   
     axis 0 0 0   XYZ
    dof rx ry rz
    limits (-20.0 45.0)
           (-30.0 30.0)
           (-30.0 30.0)
  end
  begin
     id 13 
     name thorax
     direction 0.010104 0.999947 0.00178881   
     length 1.87779   
     axis 0 0 0   XYZ
    dof rx ry rz
    limits (-20.0 45.0)
           (-30.0 30.0)
           (-30.0 30.0)
  end
  begin
     id 14 
     name lowerneck
     direction 0.0120771 0.995934 -0.0892773   
     length 1.40897   
     axis 0 0 0   XYZ
    dof rx ry rz
    limits (-20.0 45.0)
           (-30.0 30.0)
           (-30.0 30.0)
  end
  begin
     id 15 
     name upperneck
     direction -0.030568 0.999465 -0.0116366   
     length 1.38661   
     axis 0 0 0   XYZ
    dof rx ry rz
    limits (-20.0 45.0)
           (-30.0 30.0)
           (-30.0 30.0)
  end
  begin
     id 16
     name head
     direction -0.0170715 0.999854 -0.00104426  
     length 1.47052  
     axis 0 0 0   XYZ
    dof rx ry rz
    limits (-20.0 45.0)
           (-30.0 30.0)
           (-30.0 30.0)
  end
  begin
     id 17 
     name lclavicle
     direction 0.977763 0.206143 0.038532  
     length 3.02424  
     axis 0 0 0   XYZ
    dof ry rz
    limits (-20.0 10.0)
           (0.0 20.0)
  end
  begin
     id 18 
     name lhumerus
     direction 1 -4.48965e-011 -2.62654e-027   
     length 4.68382   
     axis 180 -30 -90   XYZ
    dof rx ry rz
    limits (-60.0 90.0)
           (-90.0 90.0)
           (-90.0 90.0)
  end
  begin
     id 19
     name lradius
     direction 1 -4.48973e-011 -1.54954e-027   
     length 2.98124   
     axis 180 -30 -90   XYZ
    dof rx
    limits (-10.0 170.0)
  end
  begin
     id 20
     name lwrist
     direction 1 -4.48959e-011 7.20928e-028   
     length 1.49062   
     axis -5.52449e-016 90 90   XYZ
    dof ry
    limits (-180.0 0.0)
 end
  begin
     id 21 
     name lhand
     direction 1 -4.48971e-011 1.44186e-027   
     length 0.707595   
     axis -9.20027e-016 90 90   XYZ
    dof rx rz
    limits (-90.0 90.0)
           (-45.0 45.0)
  end
  begin
     id 22 
     name lfingers
     direction 1 -4.48985e-011 2.88371e-027   
     length 0.570481   
     axis -1.84005e-015 90 90   XYZ
    dof rx
    limits (0.0 90.0)
  end
  begin
     id 23
     name lthumb
     direction 0.707107 -6.34929e-011 0.707107   
     length 0.819101   
     axis -90 45 2.85299e-015   XYZ
    dof rx rz
    limits (-45.0 45.0)
           (-45.0 45.0)
  end
  begin
     id 24 
     name rclavicle
     direction -0.958661 0.284411 -0.00895327   
     length 3.11921  
     axis 0 0 0   XYZ 
    dof ry rz
    limits (-10.0 20.0)
           (-20.0 0.0)
  end
  begin
     id 25 
     name rhumerus
     direction -1 -4.48963e-011 -4.22193e-027  
     length 4.75876   
     axis 180 30 90   XYZ
    dof rx ry rz
    limits (-90.0 60.0)
           (-90.0 90.0)
           (-90.0 90.0)
  end
  begin
     id 26 
     name rradius
     direction -1 -4.48968e-011 -1.07616e-027   
     length 2.93293   
     axis 180 30 90   XYZ
    dof rx
    limits (-10.0 170.0)
  end
  begin
     id 27 
     name rwrist
     direction -1 -4.48965e-011 7.20928e-028   
     length 1.46647   
     axis -5.52449e-016 -90 -90   XYZ
    dof ry
    limits (-180.0 0.0)
  end
  begin
     id 28
     name rhand
     direction -1 -4.48971e-011 1.44186e-027   
     length 0.831748   
     axis -9.20027e-016 -90 -90   XYZ
    dof rx rz
    limits (-90.0 90.0)
           (-45.0 45.0)
  end
  begin
     id 29
     name rfingers
     direction -1 -4.48961e-011 2.88371e-027   
     length 0.670577   
     axis -1.84005e-015 -90 -90   XYZ
    dof rx
    limits (0.0 90.0)
  end
  begin
     id 30
     name rthumb
     direction -0.707107 -6.34929e-011 0.707107   
     length 0.962818   
     axis -90 -45 -2.85299e-015   XYZ
    dof rx rz
    limits (-45.0 45.0)
           (-45.0 45.0)
  end
:hierarchy
  begin
    root lhipjoint rhipjoint lowerback
    lhipjoint lfemur
    lfemur ltibia
    ltibia lfoot
    lfoot ltoes
    rhipjoint rfemur
    rfemur rtibia
    rtibia rfoot
    rfoot rtoes
    lowerback upperback
    upperback thorax
    thorax lowerneck lclavicle rclavicle
    lowerneck upperneck
    upperneck head
    lclavicle lhumerus
    lhumerus lradius
    lradius lwrist
    lwrist lhand lthumb
    lhand lfingers
    rclavicle rhumerus
    rhumerus rradius
    rradius rwrist
    rwrist rhand rthumb
    rhand rfingers
  end

#!OML:ASF E:\id_vita\Project 1\Capture day 1\Session 1\Female.ASF
:FULLY-SPECIFIED
:DEGREES
40
root -23.9589 16.4095 2.17182 -166.066 1.83858 -177.979
lowerback -14.5769 -1.47502 -5.05435
upperback -5.61828 -0.557402 1.32192
thorax 2.30312 0.105244 4.17037
lowerneck 12.4494 0.00989735 -8.36952
upperneck -11.3986 6.90579 32.5991
head -7.23239 2.86828 12.0836
rclavicle -1.63997e-015 7.55382e-015
rhumerus -32.9478 -18.8073 -83.7309
rradius 16.2118
rwrist 30.0925
rhand -13.5187 11.7668
rfingers 7.12502
rthumb 12.5931 -17.8336
lclavicle -1.63997e-015 7.55382e-015
lhumerus -36.1661 29.9053 76.5366
lradius 14.4173
lwrist -55.301
lhand 11.1449 23.3042
lfingers 7.12502
lthumb 36.2114 49.5685
rfemur -18.8282 9.69626 19.7286
rtibia 22.0401
rfoot -5.88422 -20.8961
rtoes -19.5699
lfemur -21.9046 -11.3918 -15.8315
ltibia 28.3653
lfoot -23.2916 5.13595
ltoes 2.67551
41
root -23.9595 16.405 2.17071 -166.027 1.77256 -177.932
lowerback -14.6484 -1.48433 -4.93882
upperback -5.59968 -0.579807 1.26644
thorax 2.3624 0.0904382 4.04248
lowerneck 12.2815 -0.0443909 -8.11454
upperneck -11.1446 6.92139 32.7903
head -7.13086 2.91302 12.0896
rclavicle -4.19933e-015 -2.10712e-014
rhumerus -32.9061 -19.2718 -83.6192
rradius 16.2084
rwrist 30.5494
rhand -14.0393 11.8622
rfingers 7.12502
rthumb 12.0913 -17.7684
lclavicle -4.19933e-015 -2.10712e-014
lhumerus -36.0348 29.5432 76.6204
lradius 14.4242
lwrist -55.0079
lhand 11.1335 23.4092
lfingers 7.12502
lthumb 36.2006 49.6762
rfemur -18.8413 9.88759 19.7617
rtibia 22.0157
rfoot -5.18098 -21.0449
rtoes -19.1346
lfemur -21.9802 -10.9812 -15.8195
ltibia 28.3822
lfoot -23.3466 4.72266
ltoes 2.48003
42
root -23.9657 16.4049 2.16782 -165.985 1.81861 -177.861
lowerback -14.6186 -1.46387 -4.92509
upperback -5.66065 -0.550552 1.33782
thorax 2.27957 0.11297 4.11479
lowerneck 12.6499 0.159576 -7.56354
upperneck -11.3878 7.37523 32.4379
head -7.35738 3.07491 11.7853
rclavicle -8.19987e-015 1.19271e-015
rhumerus -33.0401 -18.9823 -83.626
rradius 16.4459
rwrist 29.7203
rhand -13.3795 11.9246
rfingers 7.12502
rthumb 12.7273 -17.6675
lclavicle -8.19987e-015 1.19271e-015
lhumerus -36.0862 29.2777 76.819
lradius 14.4803
lwrist -54.7459
lhand 11.27 23.5532
lfingers 7.12502
lthumb 36.3299 49.788
rfemur -18.879 9.95514 19.7655
rtibia 21.9698
rfoot -5.59131 -20.9683
rtoes -19.6048
lfemur -22.0275 -11.0051 -15.759
ltibia 28.4189
lfoot -23.3222 4.82775
ltoes 2.60559
43
root -23.9692 16.4077 2.16396 -165.911 1.91057 -177.835
lowerback -14.6915 -1.46262 -4.99175
upperback -5.68678 -0.532138 1.41545
thorax 2.28991 0.12681 4.23822
lowerneck 12.5585 0.0899718 -7.48618
upperneck -11.1341 7.28197 32.603
head -7.24729 3.05662 11.8326
rclavicle -1.73937e-016 -2.38542e-015
rhumerus -33.0853 -19.3143 -83.2855
rradius 16.6031
rwrist 30.136
rhand -13.2126 12.0852
rfingers 7.12502
rthumb 12.8883 -17.4968
lclavicle -1.73937e-016 -2.38542e-015
lhumerus -36.1089 29.1372 76.9921
lradius 14.5446
lwrist -54.5265
lhand 11.3862 23.5554
lfingers 7.12502
lthumb 36.4399 49.7626
rfemur -18.939 9.85236 19.7584
rtibia 21.9348
rfoot -5.706 -20.738
rtoes -18.1373
lfemur -22.0631 -11.1361 -15.7302
ltibia 28.4416
lfoot -23.2925 5.0969
ltoes 2.33919
44
root -23.9771 16.4057 2.16111 -165.924 1.95021 -177.845
lowerback -14.674 -1.48875 -4.98695
upperback -5.69567 -0.569623 1.46332
thorax 2.27557 0.109389 4.27986
lowerneck 12.402 0.0513849 -7.6494
upperneck -10.7452 7.18691 32.9594
head -7.10074 3.05989 12.0062
rclavicle 1.44119e-015 1.76918e-014
rhumerus -33.0705 -18.3444 -83.7579
rradius 16.8868
rwrist 28.2401
rhand -13.0875 11.6528
rfingers 7.12502
rthumb 13.0088 -17.9216
lclavicle 1.44119e-015 1.76918e-014
lhumerus -36.2549 29.5175 76.7829
lradius 14.5211
lwrist -54.8536
lhand 11.4091 23.4925
lfingers 7.12502
lthumb 36.4616 49.6942
rfemur -18.9387 9.55932 19.7586
rtibia 21.9612
rfoot -6.08321 -20.5946
rtoes -19.662
lfemur -22.0217 -11.1948 -15.7844
ltibia 28.4227
lfoot -23.2583 5.2313
ltoes 2.19145
45
root -23.9803 16.4048 2.15365 -165.992 1.93811 -177.853
lowerback -14.6785 -1.50875 -4.99482
upperback -5.67228 -0.598527 1.4694
thorax 2.30582 0.0921174 4.28607
lowerneck 12.2486 0.00513281 -7.7492
upperneck -10.3545 7.12179 33.3468
head -6.96263 3.08237 12.1771
rclavicle -4.22417e-015 1.09332e-014
rhumerus -33.1002 -17.8105 -84.0662
rradius 17.0688
rwrist 27.1756
rhand -13.1994 11.3689
rfingers 7.12502
rthumb 12.901 -18.2123
lclavicle -4.22417e-015 1.09332e-014
lhumerus -36.262 29.3734 76.7835
lradius 14.4833
lwrist -54.7435
lhand 11.4857 23.4357
lfingers 7.12502
lthumb 36.5341 49.6192
rfemur -18.8384 9.75998 19.7229
rtibia 22.0145
rfoot -6.00224 -20.8031
rtoes -19.157
lfemur -21.899 -11.1141 -15.8387
ltibia 28.3883
lfoot -23.3032 5.0928
ltoes 2.5155
46
root -23.9851 16.4056 2.1497 -165.964 2.09772 -177.859
lowerback -14.7436 -1.43295 -4.99035
upperback -5.65351 -0.494764 1.41325
thorax 2.34866 0.140799 4.24165
lowerneck 12.0867 -0.0852233 -7.48342
upperneck -10.0989 7.06035 33.4907
head -6.84023 3.09137 12.17
rclavicle -1.41634e-015 -9.54166e-015
rhumerus -33.2025 -18.6352 -83.7415
rradius 17.1819
rwrist 27.7361
rhand -13.4903 11.5779
rfingers 7.12502
rthumb 12.6205 -18.0208
lclavicle -1.41634e-015 -9.54166e-015
lhumerus -36.0421 28.7372 77.0716
lradius 14.4416
lwrist -54.1593
lhand 11.4536 23.4701
lfingers 7.12502
lthumb 36.5037 49.6613
rfemur -18.8824 9.8892 19.6583
rtibia 22.0527
rfoot -6.08653 -20.7634
rtoes -18.8282
lfemur -21.8661 -11.0227 -15.8933
ltibia 28.3632
lfoot -23.3154 5.11634
ltoes 2.62552
47
root -23.9924 16.4051 2.1473 -165.992 2.1426 -177.906
lowerback -14.7214 -1.43031 -5.00685
upperback -5.61391 -0.496908 1.39515
thorax 2.37861 0.134534 4.23153
lowerneck 11.8959 -0.1174 -7.24073
upperneck -9.86639 7.03216 33.5247
head -6.7207 3.11146 12.1181
rclavicle -2.01269e-015 8.94531e-015
rhumerus -33.1269 -19.0404 -83.5475
rradius 17.0885
rwrist 28.0729
rhand -14.5619 11.9564
rfingers 7.12502
rthumb 11.5872 -17.7033
lclavicle -2.01269e-015 8.94531e-015
lhumerus -36.0273 29.0439 76.864
lradius 14.3261
lwrist -54.4939
lhand 11.3091 23.4826
lfingers 7.12502
lthumb 36.3669 49.7082
rfemur -18.8796 9.71613 19.611
rtibia 22.0981
rfoot -6.08042 -20.6951
rtoes -18.5692
lfemur -21.8091 -10.9375 -16.0009
ltibia 28.3294
lfoot -23.3303 5.03524
ltoes 2.54436
48
root -23.9946 16.4041 2.14279 -166.036 2.09014 -177.935
lowerback -14.7247 -1.53682 -5.07479
upperback -5.58318 -0.635485 1.46432
thorax 2.42885 0.0626259 4.32045
lowerneck 11.7862 -0.0587042 -7.26934
upperneck -9.56979 7.0739 33.6808
head -6.63033 3.16559 12.1684
rclavicle -6.70898e-015 2.56432e-014
rhumerus -33.2412 -19.0473 -83.4726
rradius 17.4464
rwrist 28.1677
rhand -14.2341 11.7166
rfingers 7.12502
rthumb 11.9033 -17.925
lclavicle -6.70898e-015 2.56432e-014
lhumerus -36.1414 29.3086 76.767
lradius 14.3252
lwrist -54.5027
lhand 11.0104 23.6347
lfingers 7.12502
lthumb 36.084 49.9305
rfemur -18.822 9.73566 19.5926
rtibia 22.1501
rfoot -5.78619 -21.1306
rtoes -18.8553
lfemur -21.7283 -10.7893 -16.0662
ltibia 28.2908
lfoot -23.4371 4.7596
ltoes 2.85433
